PathFileType	4	(X/Y/Z)	OpenSim_Sub02_CSBaseline_Magnet.trc
DataRate	CameraRate	NumFrames	NumMarkers	Units	OrigDataRate	OrigDataStartFrame	OrigNumFrames
100	100	13	8	m	100	4411	7057
Frame#	Time	torso_imu_offset_imu	pelvis_imu_offset_imu	tibia_r_imu_offset_imu	femur_r_imu_offset_imu	tibia_l_imu_offset_imu	femur_l_imu_offset_imu	toes_r_imu_offset_imu	toes_l_imu_offset_imu
				X1	Y1	Z1	X2	Y2	Z2	X3	Y3	Z3	X4	Y4	Z4	X5	Y5	Z5	X6	Y6	Z6	X7	Y7	Z7	X8		Y8	Z8	

4411	44.10000000	-0.93691713	-0.13369528	0.01946123	-0.62292042	0.09589973	-0.68883302	-0.42131094	-0.67193983	-0.21097085	-0.61753572	-0.45996711	0.31558367	-0.77133954	0.22453536	0.00195978	-0.71045166	0.01842888	0.14883706	-0.63658343	-0.30329344	-0.32859619	-0.48434472	-0.17189031	-0.64934625
4412	44.11000000	-0.94299034	-0.13320663	0.01901793	-0.62138134	0.09815283	-0.68521455	-0.41180959	-0.67949683	-0.21206316	-0.61499846	-0.46368044	0.31059028	-0.77895578	0.20504317	0.01587677	-0.70997649	0.02878421	0.14642903	-0.63762830	-0.30094646	-0.32850153	-0.46891240	-0.17880436	-0.66387580
4413	44.12000000	-0.94207085	-0.13328418	0.01542154	-0.62455334	0.09999925	-0.68503861	-0.39969224	-0.68411171	-0.21736198	-0.61477534	-0.46871198	0.31423402	-0.78280318	0.18541889	0.02968786	-0.70375030	0.03780772	0.14340521	-0.63666184	-0.30159360	-0.32101122	-0.44473481	-0.19733313	-0.67096188
4414	44.13000000	-0.93948828	-0.13346265	0.01340832	-0.61745495	0.10351362	-0.68326416	-0.39733587	-0.69365288	-0.21915537	-0.61546688	-0.47380316	0.31136221	-0.78213122	0.18157159	0.03684751	-0.69702254	0.03826357	0.14455803	-0.63693315	-0.29873689	-0.32242683	-0.43380131	-0.20675886	-0.67266979
4415	44.14000000	-0.94124300	-0.13261190	0.01792248	-0.61971305	0.10464436	-0.68269237	-0.38694013	-0.69519173	-0.21790613	-0.61644704	-0.47614508	0.30669605	-0.78206487	0.17917785	0.04263734	-0.69763886	0.03985683	0.16261507	-0.63533693	-0.30038243	-0.32129541	-0.42472547	-0.21212181	-0.68088049
4416	44.15000000	-0.93851397	-0.13130623	0.01581561	-0.61851109	0.09879512	-0.68089908	-0.37336553	-0.69576297	-0.22317957	-0.61018027	-0.48028473	0.30915018	-0.77865868	0.19093775	0.04540391	-0.69417851	0.04242455	0.17392091	-0.64020426	-0.29815298	-0.31551202	-0.42535868	-0.22359904	-0.67720773
4417	44.16000000	-0.93600050	-0.13424232	0.01199594	-0.62243358	0.10005924	-0.67987169	-0.35913509	-0.71004910	-0.22684156	-0.60625997	-0.48091310	0.30564317	-0.77149727	0.20176712	0.04116619	-0.69037694	0.03640967	0.16937729	-0.63855387	-0.29923885	-0.30762900	-0.43942319	-0.22675481	-0.66765479
4418	44.17000000	-0.93577730	-0.13485673	0.00911063	-0.62273339	0.10292585	-0.67518881	-0.34948755	-0.71150261	-0.23197013	-0.60880548	-0.48271108	0.30523937	-0.76673616	0.21865824	0.04227073	-0.68756870	0.03080315	0.17622267	-0.64418827	-0.30109720	-0.30545782	-0.45684070	-0.21639029	-0.66372345
4419	44.18000000	-0.93982804	-0.13305232	0.00600543	-0.62416741	0.11059598	-0.67388019	-0.33285601	-0.71542935	-0.23773588	-0.60763623	-0.48412002	0.30587766	-0.76488832	0.23365882	0.03948422	-0.68797923	0.03039165	0.18667588	-0.64117545	-0.30465486	-0.30430517	-0.48361064	-0.19695701	-0.65754975
4420	44.19000000	-0.93859772	-0.13340988	0.00482083	-0.62281745	0.11759711	-0.67015923	-0.31649001	-0.72412039	-0.23844259	-0.60982209	-0.48293764	0.29707944	-0.76026955	0.25579288	0.04662633	-0.68952156	0.02778646	0.20037470	-0.63841703	-0.31318476	-0.29561597	-0.49549861	-0.18031701	-0.64337597
4421	44.20000000	-0.93638620	-0.13311417	-0.00279141	-0.63005575	0.11808320	-0.66440181	-0.30968589	-0.72880484	-0.24335242	-0.61491547	-0.49032411	0.29455399	-0.75834336	0.26677444	0.05771706	-0.68347009	0.02394458	0.21033592	-0.64883296	-0.31377631	-0.28659116	-0.50469034	-0.16778768	-0.64080604
4422	44.21000000	-0.93885440	-0.13399219	-0.00838947	-0.63031931	0.11993592	-0.66634220	-0.28991409	-0.73088986	-0.24945875	-0.61397035	-0.48998341	0.29192806	-0.75918509	0.26724521	0.06156008	-0.68331619	0.02859725	0.21991412	-0.64722344	-0.31276572	-0.27921404	-0.53106708	-0.15256233	-0.63002320
4423	44.22000000	-0.94358641	-0.13485562	-0.01334743	-0.62437190	0.12610623	-0.66697598	-0.27188879	-0.73574141	-0.25262591	-0.61480384	-0.49083408	0.27720014	-0.75491595	0.26272763	0.06470315	-0.67834736	0.03203086	0.23031755	-0.65771521	-0.32093516	-0.26534776	-0.56378500	-0.14736008	-0.60794373
